<svg id="a36d61c0-363a-408d-bbc3-a457268b74e1" data-name="Ebene 1" xmlns="http://www.w3.org/2000/svg" viewBox="0 0 149 20"><defs><style>.f3078c33-4add-440c-8de9-ba3b0f73bf49{fill:#fff;}.a34aa0fc-07a5-4b5e-8150-a7b96bb0fbad{fill:#05aeab;}</style></defs><path class="f3078c33-4add-440c-8de9-ba3b0f73bf49" d="M28.812,16.2l-.492-2.423.059-.04a10.354,10.354,0,0,0,4.628,1.241c1.95,0,3.23-.689,3.23-1.812,0-.827-.63-1.3-1.516-1.615l-3.683-1.063a3.59,3.59,0,0,1-2.581-3.565c0-2.62,2.147-4.058,5.181-4.058a9.248,9.248,0,0,1,4.175.906V6.094a7.61,7.61,0,0,0-4.1-1.1c-2.127,0-2.836.847-2.836,1.931,0,.472.138,1.26,1.4,1.713L35.9,9.718a3.463,3.463,0,0,1,2.757,3.408c0,2.6-2.363,4-5.534,4a12.228,12.228,0,0,1-4.314-.925"/><polygon class="f3078c33-4add-440c-8de9-ba3b0f73bf49" points="51.974 5.326 47.267 5.326 47.267 16.888 44.844 16.888 44.844 5.326 40.117 5.326 40.117 3.1 51.974 3.1 51.974 5.326"/><path class="f3078c33-4add-440c-8de9-ba3b0f73bf49" d="M61.7,14.012H54.692l-1.339,2.876H50.891L57.41,3.1h1.537l6.559,13.788H63.044Zm-.965-2.068-2.56-5.456-2.541,5.456Z"/><path class="f3078c33-4add-440c-8de9-ba3b0f73bf49" d="M77.953,13.283c0,2.069-1.733,3.605-4.313,3.605H67.77V3.1h5.082c3.053,0,4.707,1.654,4.707,3.761a3.176,3.176,0,0,1-2.442,3.053,3.421,3.421,0,0,1,2.836,3.368M72.635,5.188H70.173V9.206h2.285c1.654,0,2.7-.807,2.7-1.989,0-1.28-.906-2.029-2.521-2.029m2.895,7.82a2.216,2.216,0,0,0-2.462-2.029H70.173V14.8h2.895c1.478,0,2.462-.67,2.462-1.792"/><polygon class="f3078c33-4add-440c-8de9-ba3b0f73bf49" points="89.007 14.662 89.007 16.888 80.774 16.888 80.774 3.1 83.197 3.1 83.197 14.662 89.007 14.662"/><polygon class="f3078c33-4add-440c-8de9-ba3b0f73bf49" points="94.418 5.287 94.418 9.088 99.992 9.088 99.992 11.117 94.418 11.117 94.418 14.702 100.308 14.702 100.308 16.888 91.996 16.888 91.996 3.1 100.308 3.1 100.308 5.287 94.418 5.287"/><polygon class="f3078c33-4add-440c-8de9-ba3b0f73bf49" points="114.917 3.1 114.917 16.888 114.07 16.888 105.718 8.005 105.718 16.888 103.296 16.888 103.296 3.1 104.143 3.1 112.494 12.121 112.494 3.1 114.917 3.1"/><polygon class="f3078c33-4add-440c-8de9-ba3b0f73bf49" points="120.328 5.287 120.328 9.088 125.902 9.088 125.902 11.117 120.328 11.117 120.328 14.702 126.217 14.702 126.217 16.888 117.905 16.888 117.905 3.1 126.217 3.1 126.217 5.287 120.328 5.287"/><polygon class="f3078c33-4add-440c-8de9-ba3b0f73bf49" points="140.477 5.326 135.769 5.326 135.769 16.888 133.346 16.888 133.346 5.326 128.619 5.326 128.619 3.1 140.477 3.1 140.477 5.326"/><path class="f3078c33-4add-440c-8de9-ba3b0f73bf49" d="M147.961,4.494a2.8,2.8,0,1,1-2.787-2.8,2.813,2.813,0,0,1,2.787,2.8m-.467,0a2.325,2.325,0,1,0-2.32,2.338,2.324,2.324,0,0,0,2.32-2.338m-1.7.4.63.811-.029.076h-.735l-.554-.754h-.257v.754h-.7V3.109h1.107a.978.978,0,0,1,1.06.936.981.981,0,0,1-.525.85M144.85,4.5h.276c.325,0,.487-.191.487-.4a.43.43,0,0,0-.487-.4h-.276Z"/><rect class="a34aa0fc-07a5-4b5e-8150-a7b96bb0fbad" x="8.28" y="7.241" width="5.517" height="5.517"/><path class="f3078c33-4add-440c-8de9-ba3b0f73bf49" d="M20.694,0H18.625a.345.345,0,0,0-.345.345V1.812L16.063,4.03a.669.669,0,1,0,.946.946l2.217-2.217h1.468a.346.346,0,0,0,.345-.345V.345A.345.345,0,0,0,20.694,0Z"/><path class="a34aa0fc-07a5-4b5e-8150-a7b96bb0fbad" d="M5.866,14.828H3.8a.345.345,0,0,0-.345.344v1.489L1.23,18.884a.654.654,0,1,0,.925.924l2.222-2.222H5.866a.344.344,0,0,0,.345-.345V15.172A.344.344,0,0,0,5.866,14.828Z"/><path class="f3078c33-4add-440c-8de9-ba3b0f73bf49" d="M12.885,3.1h-7.8L3.8,1.812V.345A.344.344,0,0,0,3.453,0H1.384a.344.344,0,0,0-.345.345V2.414a.345.345,0,0,0,.345.345H2.851L4.142,4.05v7.8a1.035,1.035,0,0,0,2.069,0V5.172h6.674a1.035,1.035,0,0,0,0-2.069Z"/><path class="f3078c33-4add-440c-8de9-ba3b0f73bf49" d="M20.694,17.241H19.226L17.935,15.95v-7.8a1.034,1.034,0,1,0-2.068,0v6.674H9.193a1.035,1.035,0,1,0,0,2.069h7.8l1.291,1.29v1.468a.345.345,0,0,0,.345.345h2.069a.345.345,0,0,0,.345-.345V17.586A.346.346,0,0,0,20.694,17.241Z"/></svg>